<svg width="16" height="767" viewBox="0 0 16 767" fill="none" xmlns="http://www.w3.org/2000/svg">
<g clip-path="url(#clip0_905_19370)">
<g clip-path="url(#clip1_905_19370)">
<path d="M8.13488 763.812C8.13488 766.634 8.52488 762.3 8.28488 765.646C8.17021 765.369 8.09787 765.064 8.07211 764.749C8.04636 764.434 8.0677 764.115 8.13488 763.812V763.812Z" fill="#1A1A1A"/>
<path d="M4.65532 9.12011C5.93032 18.1307 4.94032 30.0843 5.82532 39.9818C5.82532 41.1308 5.19532 39.6996 5.37532 42.3202C6.41032 51.8952 6.08032 67.0539 5.54032 78.7656L5.36032 78.0601C5.25532 80.2977 5.88532 82.9988 5.84032 85.3573C5.72032 85.3573 5.66032 84.6114 5.51032 85.1557C5.87032 85.7403 5.72032 89.4291 6.00532 90.4169C5.87032 91.3643 5.60032 91.2837 5.45032 92.4327L5.87032 93.7631C6.89032 97.5125 5.87032 102.895 6.48532 108.015C6.38032 107.773 6.30532 107.269 6.21532 107.672C6.90532 115.896 6.92032 126.197 7.23532 135.389C7.10032 135.026 6.83032 134.704 6.68032 135.248C7.10032 135.692 7.25032 138.534 7.35532 140.993C6.93532 142.122 7.80532 145.226 7.59532 148.109L7.50532 147.867C7.98532 150.004 7.26532 151.052 7.83532 152.785L7.44532 154.197C8.07532 155.124 7.16032 157.301 7.44532 159.055L7.58032 159.055C7.74532 160.728 7.44532 161.594 7.58032 163.086L7.58032 163.227C7.79032 166.856 7.46032 168.952 7.94032 168.871C7.58032 170.141 7.73032 165.364 7.19032 167.36C7.82032 179.253 7.86532 191.549 7.97032 203.523C7.92546 204.391 7.7891 205.246 7.56532 206.063C7.61668 207.939 7.74689 209.81 7.95532 211.667C7.95532 211.264 7.71532 212.453 7.70032 213.078C7.53532 215.255 8.25532 215.456 8.06032 217.855C7.92532 216.888 7.76032 216.585 7.58032 216.908C7.89005 219.278 8.06058 221.678 8.09032 224.084C8.00032 223.701 7.95532 223.116 7.80532 223.217C8.25532 225.858 7.80532 228.035 8.04532 230.353L7.76032 229.486C7.46032 233.215 8.36032 230.575 8.18032 233.8C8.09032 233.034 7.98532 233.296 7.86532 233.155C8.24163 236.755 8.44705 240.385 8.48032 244.02C8.48032 243.839 8.36032 243.899 8.36032 243.899C8.45032 247.165 8.36032 250.571 8.57032 254.16C8.46532 255.47 7.89532 253.756 8.01532 257.203C8.58532 257.062 8.30032 263.069 8.91532 261.013C8.77358 264.209 8.77358 267.413 8.91532 270.608C8.69032 269.298 8.24032 272.06 8.18032 269.621L7.85032 271.475C7.62532 271.193 7.85032 269.459 7.62532 270.165C7.62532 271.395 7.91032 274.962 7.83532 276.071C8.42594 278.695 8.79821 281.4 8.94532 284.134C8.72032 282.401 8.34532 285.142 8.24032 283.953L9.35032 289.093C9.35032 290.323 8.90032 289.355 9.06532 291.109C9.21532 291.109 9.30532 291.794 9.42532 292.339C9.54532 292.883 9.60532 297.439 9.06532 297.983C8.85532 298.527 8.93032 295.967 8.75032 297.338C8.75032 299.616 8.96032 299.696 8.97532 301.974C8.97532 303.466 9.24532 306.389 9.53032 304.756C9.53032 303.708 9.21532 305.159 9.36532 303.607C9.70515 305.555 9.8564 307.553 9.81532 309.553C9.72532 308.787 9.57532 308.888 9.41032 308.566C9.82541 311.767 10.1009 314.997 10.2353 318.241C10.4903 318.241 9.75532 316.992 9.89032 316.488C9.54532 320.842 10.4603 325.478 9.89032 329.127C9.89032 328.522 10.2653 328.784 10.1903 328.845C10.1903 330.86 9.80032 330.86 9.95032 332.211C9.72532 332.352 9.95032 333.924 10.1003 335.335C10.2653 336.061 9.99532 335.718 9.96532 334.489C10.3381 339.256 10.4334 344.054 10.2503 348.841C10.5922 350.067 10.7748 351.362 10.7903 352.671L10.4453 352.268C10.2503 353.215 10.4453 355.755 10.2053 355.937C10.6403 358.154 9.80032 347.349 10.2053 350.373C9.92032 351.159 10.7753 354.566 10.2953 353.921C10.5023 355.925 10.5426 357.953 10.4153 359.968C10.4153 359.384 9.93532 358.275 9.96532 359.968C9.96532 362.932 10.1303 360.795 10.2653 363.214L10.4153 364.726C10.7453 364.826 10.4153 367.386 10.7453 366.278C10.4753 366.661 10.9403 370.612 10.3853 370.309L9.95032 369.906C10.065 370.976 10.287 372.021 10.6103 373.011C10.6103 373.192 10.4903 373.535 10.4153 373.454C11.0903 373.656 10.4153 376.538 10.9103 378.07C10.6853 380.771 10.9103 384.924 10.5053 386.133C10.7816 388.316 10.8621 390.536 10.7453 392.745C10.7453 392.261 10.6553 391.616 10.5203 391.495C10.3952 392.562 10.4309 393.652 10.6253 394.7C10.3458 396.226 10.1404 397.775 10.0103 399.337C10.2203 401.353 10.5803 400.687 10.8053 400.889C10.1453 402.784 11.2553 406.715 10.6553 409.073C10.5653 408.367 10.3253 406.069 10.1603 407.783C9.51531 409.678 10.6703 411.593 10.3703 414.637L10.9103 413.891C10.5803 415.241 11.2403 418.366 10.6853 418.043C10.8953 419.071 10.5203 421.631 11.0603 421.289C10.6253 426.288 11.3753 433.383 10.4303 436.528C10.5203 437.234 10.4303 439.028 10.7153 438.544C11.0003 437.355 10.4903 436.891 10.7153 436.528C10.7153 437.173 10.8803 437.314 10.9403 437.375C10.8353 438.927 10.7903 440.156 10.3553 438.685C10.0253 442.152 11.2703 442.253 11.0753 446.748C10.8503 446.546 10.7603 446.889 10.8053 448.159L11.1953 450.598C11.1053 453.461 10.7003 452.231 10.3253 452.291C10.2903 453.65 10.4014 455.008 10.6553 456.323L10.1903 458.178C10.5353 456.827 10.4303 459.427 10.5203 460.193L10.4453 459.266C10.3361 460.235 10.3361 461.22 10.4453 462.189C10.6853 461.967 10.7753 460.173 10.8353 459.206C11.0003 459.972 10.9703 461.221 11.1653 462.209C10.7903 461.867 10.9103 464.689 10.8803 465.898C10.8503 467.108 11.2103 467.45 11.1953 467.914C11.0003 467.914 11.1953 470.192 10.8953 469.103C10.8953 468.64 11.0753 468.035 10.8953 467.249C10.7603 468.156 10.4303 468.055 10.6703 469.95C10.8653 471.381 11.3903 469.587 11.1803 472.288C11.0882 471.81 10.9627 471.344 10.8053 470.897L10.5953 473.377L10.9253 473.377C10.8353 473.719 10.8053 473.477 10.7603 473.639C11.1203 474.385 10.8803 477.509 11.2853 478.094C11.2853 479.364 11.0603 480.775 11.0153 482.004L11.0153 481.762C10.853 483.343 10.9141 484.95 11.1953 486.499L11.1203 486.499C11.089 487.757 11.1645 489.015 11.3453 490.249C11.0903 492.265 10.0853 490.954 10.5053 493.232C10.5053 495.248 11.1203 496.518 11.3453 495.671C11.1203 499.421 11.6753 503.734 11.1653 507.181C11.3003 507.706 11.3753 507.363 11.4653 508.492C11.3453 513.995 11.8853 520.143 11.2253 524.618C11.0903 523.005 10.8953 524.497 10.7003 524.618C11.0003 525.928 10.4003 526.211 10.9103 526.634C11.2103 526.513 11.3603 526.634 11.4803 525.082C11.6749 528.439 11.6348 531.813 11.3603 535.161C11.5103 534.254 11.6003 534.959 11.6903 535.685C11.2103 535.443 11.1353 537.862 11.3153 539.716L11.6003 539.978L11.3003 541.168C11.3903 541.893 11.9153 541.954 11.6303 543.788C11.5544 543.84 11.488 543.914 11.4361 544.005C11.3841 544.095 11.348 544.2 11.3303 544.312C11.7103 546.483 11.8418 548.72 11.7203 550.944L11.3003 552.638C11.3003 553.524 11.6003 554.996 11.7203 553.464C11.6797 555.785 11.4636 558.095 11.0753 560.358C11.8699 567.596 12.1612 574.918 11.9453 582.229L11.7203 582.028C11.5253 583.923 12.1103 583.015 11.9603 584.326C11.7503 583.721 11.4953 585.777 11.2403 584.326C11.1908 586.096 11.3529 587.865 11.7203 589.567C12.0053 589.849 11.5403 588.156 11.9003 588.498C12.0053 588.801 11.6753 592.248 12.1103 592.671C11.9453 593.336 11.6153 592.812 11.4353 592.449L11.6453 594.102C11.1353 596.118 10.7453 589.486 10.1453 591.623L10.1453 593.135C9.68031 594.606 9.62031 589.103 9.47031 592.933C9.68031 594.606 10.3103 596.017 10.5053 594.546C10.6253 597.993 11.5403 596.138 11.5103 599.867C11.2553 600.875 11.5103 596.884 11.0903 597.59C10.7303 599.343 11.2853 601.117 11.0903 602.669C11.2553 600.936 11.7053 602.407 11.7803 603.516C11.5703 605.411 11.3753 602.286 11.3153 604.967C11.5703 605.411 11.7653 607.87 11.9303 605.754C12.5003 606.721 11.7803 608.535 12.2153 609.987C11.8103 610.854 11.2853 607.225 11.0903 610.168C11.4803 609.705 11.6153 613.797 12.1853 612.184C12.0803 613.353 11.7653 613.454 11.5403 612.627C11.3003 614.28 12.2303 616.659 11.5403 617.163L11.9453 617.748C11.8103 618.272 11.7203 618.997 11.4953 619.763C11.4953 621.215 12.0353 624.44 11.4953 624.299C11.4953 624.783 11.4953 628.089 11.9303 626.819C12.1853 624.803 11.6303 624.44 12.2003 623.291C11.9511 624.676 12.019 626.131 12.3953 627.464L12.1703 627.645C12.2603 628.351 12.1703 630.004 12.4553 630.427C12.3203 629.903 12.1703 630.165 12.1103 630.749L12.4553 631.475C12.6203 634.358 11.8403 632.16 11.9303 634.962L11.6603 632.826C11.5548 633.746 11.4996 634.676 11.4953 635.607C11.8253 636.111 12.2003 637.099 12.4553 637.623C12.5903 639.216 12.0953 638.329 12.4553 639.901L12.0803 637.885C11.9753 637.583 11.5403 639.276 11.5553 641.373C11.5553 642.703 11.9453 644.719 12.1853 642.703C12.1853 643.751 11.9903 645.243 11.7653 644.396C11.8703 646.795 12.1103 644.074 12.3053 646.15C12.0803 646.997 11.7803 649.637 11.4653 651.23L10.9253 649.053L10.9253 650.504C10.4903 648.629 10.5953 651.431 10.1453 650.383C10.112 651.432 10.1775 652.481 10.3403 653.508C11.0753 650.645 11.3303 656.733 11.9903 655.886C12.1553 659.817 10.3703 658.346 11.4053 662.458C11.5703 661.772 12.0803 663.708 11.8853 661.228C11.8853 663.687 12.5453 662.901 12.2753 665.784C12.0053 663.647 11.6003 668.082 11.2103 664.977C11.4203 665.199 11.3753 663.264 11.3153 662.78C11.0603 663.788 10.6403 662.579 10.6403 665.078C10.6403 666.61 10.6403 668.707 11.0603 668.404C11.4803 668.102 11.0603 666.066 11.4053 667.054C11.5253 670.098 10.9553 670.602 11.6153 671.851C11.6153 669.936 11.9603 669.453 12.2303 669.493L12.3803 671.73L12.1253 671.287C11.9303 674.875 12.5753 672.355 12.5003 675.822L11.9453 677.415C11.5253 676.588 12.1553 672.355 11.4653 672.98C11.5788 674.689 11.6189 676.405 11.5853 678.12C11.5853 677.637 11.5853 676.992 11.4503 676.528C10.8859 678.015 10.7369 679.724 11.0303 681.346C11.2403 683.019 11.2703 681.789 11.5403 681.829C11.5403 685.458 11.8703 686.546 11.9003 688.885C11.3903 688.401 11.9003 692.916 11.3303 690.417C11.6542 687.859 11.5878 685.239 11.1353 682.716C10.5203 684.027 11.2253 679.874 10.6253 679.088C10.6253 681.991 9.99531 681.85 9.60531 682.313C9.61365 682.993 9.67907 683.669 9.80031 684.329C10.1603 684.672 10.1603 683.603 10.5353 683.543C10.413 686.278 10.5592 689.023 10.9703 691.707C10.7903 692.795 10.4303 692.453 10.4003 691.163C10.4903 695.013 10.4003 699.226 10.3103 702.814C10.9103 700.435 10.4303 706.845 10.9403 705.273C11.0753 703.257 11.5103 701.625 11.7803 702.713C11.7803 703.943 11.5103 702.713 11.3753 703.197C11.7053 704.749 10.8503 705.616 11.3753 707.228C11.1953 703.701 10.6553 706.543 10.1753 705.898C10.4303 708.438 9.84531 705.777 9.84531 708.297C10.0853 710.837 10.2803 713.941 10.3853 716.763C10.1459 720.788 10.1459 724.833 10.3853 728.858C10.1303 730.511 9.60531 729.402 9.51531 731.196C9.42531 732.99 10.0853 729.624 9.83031 732.748L9.72531 732.446C9.84531 733.393 9.33531 738.151 10.1003 739.078L9.53031 738.11C9.51149 738.654 9.55706 739.198 9.66531 739.723C9.47031 739.723 9.30531 740.408 9.18531 739.461C8.98865 741.468 8.98865 743.501 9.18531 745.508L9.53031 744.178C9.78531 747.746 9.44031 750.225 9.53031 753.592L9.18531 753.592L9.42531 755.587C9.11031 755.083 8.88531 756.978 9.15531 758.067L8.36031 752.705C8.57031 751.233 8.76531 754.337 9.09531 753.41C9.34721 751.921 9.29539 750.368 8.94531 748.915C8.90311 749.667 8.9538 750.423 9.09531 751.152C8.63031 751.556 8.64531 749.681 8.34531 748.774C8.34531 749.399 8.21031 750.326 8.34531 750.467C8.13143 748.939 8.04589 747.384 8.09031 745.831C8.27031 747.242 8.39031 745.045 8.51031 745.589C8.10531 745.428 8.00031 743.412 8.12031 740.811C8.60031 738.957 7.83531 735.933 7.98531 732.93C8.47213 734.362 8.79576 735.884 8.94531 737.445C9.17031 735.57 8.94531 735.429 9.17031 733.414C8.61342 732.193 8.28409 730.81 8.21031 729.382L8.52531 729.241C8.20719 727.58 8.03601 725.875 8.01531 724.161C8.19531 719.283 8.21031 714.284 8.25531 710.575L8.57031 710.434C7.92531 708.418 8.34531 703.54 8.07531 700.758C8.37531 696.021 7.82031 690.457 8.34531 688.038C8.13531 679.673 7.94031 672.375 8.06031 663.708L8.51031 665.159C8.18031 663.607 8.76531 664.151 8.70531 662.639C8.34531 664.393 8.24031 660.523 7.98531 659.454C8.21111 655.372 8.10044 651.268 7.65531 647.218L7.97031 647.097C7.40031 643.63 7.97031 639.518 7.97031 635.204C8.22807 634.403 8.3559 633.537 8.34531 632.664C7.94865 630.365 7.69775 628.025 7.59531 625.67C7.59531 623.17 7.73031 619.118 7.92531 616.578C7.23531 607.165 7.68531 597.569 7.28031 587.793L7.64031 587.087C6.89031 577.593 7.64031 565.942 7.17531 557.858L7.79031 558.624C7.97031 556.105 7.62531 552.859 7.19031 553.504C7.38531 550.964 6.89031 547.155 7.40031 545.542C7.38799 543.75 7.26254 541.963 7.02531 540.2C7.1983 536.172 7.1983 532.134 7.02531 528.105L7.02531 529.335C7.14531 529.859 7.41531 529.92 7.44531 528.69C7.28031 526.856 7.61031 521.957 6.87531 523.792C7.29531 518.551 6.51531 511.576 7.07031 506.476C6.87531 506.899 6.83031 505.609 6.69531 505.085C6.85918 500.72 6.85918 496.347 6.69531 491.982C6.78531 491.257 7.02531 493.152 7.05531 491.277C6.96531 490.168 6.78531 491.277 6.68031 489.886C6.29031 482.448 7.02531 474.808 6.90531 468.035C6.48532 455.94 6.63532 443.442 6.54532 431.912L6.68032 432.053C6.11032 428.183 7.22032 422.982 6.36532 419.958C6.50032 419.051 6.36532 416.471 6.69532 417.156C6.29032 414.072 7.04032 408.549 6.51532 404.094C6.5031 404.468 6.53345 404.841 6.60532 405.203C6.90532 400.728 6.44032 396.757 6.71032 392.019C6.71032 392.503 6.83032 393.37 6.98032 393.511C7.25032 391.677 6.33532 389.177 6.98032 388.169C6.98032 387.121 6.62032 387.423 6.65032 388.169C6.87532 377.788 6.35032 366.721 6.14032 355.917C6.51532 348.176 7.32532 355.433 6.75532 349.345C6.89032 348.841 6.48532 348.982 6.63532 348.902C6.42532 346.543 7.40032 345.213 7.02532 343.58C6.59032 344.245 6.77032 342.491 6.51532 342.431C6.75532 337.714 7.14532 336.746 6.80032 333.017L7.02532 333.299C6.35032 328.925 6.66532 323.866 5.88532 320.177L4.71532 249.382C4.71532 226.1 4.11532 203.341 4.25032 179.716C4.75652 175.72 4.82726 171.646 4.46032 167.622C4.56532 167.864 4.59532 168.247 4.67032 167.843C4.17532 167.541 4.58032 163.55 4.11532 162.985C4.11532 154.257 3.89032 146.214 3.77032 137.224C3.77032 138.635 4.25032 139.34 4.20532 137.667L3.87532 135.893L3.99532 135.611C3.92032 134.462 3.66532 133.212 3.51532 134.401C2.94532 111.925 3.71032 89.6912 3.27532 67.5982C3.41032 62.337 3.12532 54.8584 2.94532 49.1738C3.35032 32.2412 3.66532 16.9212 2.94532 -0.172712C2.94532 -0.172712 4.25032 2.04469 4.65532 9.12011Z" fill="#1A1A1A"/>
<path d="M8.08984 760.425C8.34484 759.84 8.47984 757.865 8.80984 759.437C8.56984 759.619 8.31484 760.647 8.08984 760.425Z" fill="#1A1A1A"/>
<path d="M10.8506 707.934C10.8506 707.934 10.9556 707.188 11.0006 707.027C11.0006 707.672 11.2256 708.277 11.0906 708.801C11.0756 708.136 10.9556 708.236 10.8506 707.934Z" fill="#1A1A1A"/>
<path d="M11.0449 694.509C11.3531 696.066 11.4896 697.676 11.4499 699.286L11.0449 694.509Z" fill="#1A1A1A"/>
<path d="M11.9453 682.011C12.1403 680.922 12.2303 681.225 12.2303 682.696C12.1553 682.797 12.0953 682.313 11.9453 682.011Z" fill="#1A1A1A"/>
<path d="M11.4954 681.124C11.4891 680.437 11.5755 679.754 11.7504 679.108C11.5554 679.108 11.8554 681.467 11.4954 681.124Z" fill="#1A1A1A"/>
<path d="M12.2004 653.971C12.0725 653.086 12.0725 652.176 12.2004 651.29C12.0804 651.976 12.5154 654.475 12.2004 653.971Z" fill="#1A1A1A"/>
<path d="M11.9453 641.332C11.9824 640.985 11.9824 640.632 11.9453 640.284C12.0503 639.538 12.2153 640.284 12.2303 640.969L11.9453 641.332Z" fill="#1A1A1A"/>
<path d="M10.7456 411.552L10.8506 412.923L10.6406 412.722L10.7456 411.552Z" fill="#1A1A1A"/>
<path d="M10.1601 310.884C10.0251 309.533 10.3701 309.936 10.4001 309.715C10.4451 310.944 10.1301 309.251 10.1601 310.884Z" fill="#1A1A1A"/>
<path d="M8.66059 256.599L8.66059 257.022L8.22559 256.881L8.66059 256.599Z" fill="#1A1A1A"/>
</g>
</g>
<defs>
<clipPath id="clip0_905_19370">
<rect width="15" height="766" fill="white" transform="translate(0.5 0.170166)"/>
</clipPath>
<clipPath id="clip1_905_19370">
<rect width="765.819" height="9.555" fill="white" transform="translate(2.94531 765.646) rotate(-90)"/>
</clipPath>
</defs>
</svg>
