<svg width="344" height="16" viewBox="0 0 344 16" fill="none" xmlns="http://www.w3.org/2000/svg">
<g clip-path="url(#clip0_905_19322)">
<g clip-path="url(#clip1_905_19322)">
<path d="M4.58178 3.68011C3.33625 3.71011 5.21413 4.10011 3.75781 3.80011C3.84699 3.6989 3.98374 3.62946 4.13815 3.60697C4.29257 3.58448 4.45207 3.61078 4.58178 3.68011V3.68011Z" fill="#1A1A1A"/>
<path d="M339.802 6.60517C335.873 7.91017 330.489 6.98017 326.139 7.89517C325.622 7.89517 326.235 7.25017 325.085 7.46017C320.87 8.52517 314.105 8.21017 308.874 7.70017L309.181 7.52017C308.184 7.43017 306.996 8.04517 305.942 8.00017C305.942 7.89517 306.268 7.83517 305.942 7.67017C305.693 8.04517 304.026 7.91017 303.624 8.18017C303.202 8.06017 303.241 7.77517 302.685 7.64017L302.11 8.06017C300.481 9.08017 298.048 8.06017 295.806 8.67517C295.806 8.58517 296.131 8.49517 295.94 8.42017C291.869 8.95384 287.761 9.29943 283.638 9.45517C283.791 9.30517 283.944 9.03517 283.638 8.88517C283.446 9.32017 282.201 9.45517 281.108 9.57517C280.591 9.15517 279.192 10.0252 277.947 9.81517L278.043 9.71017C277.104 10.1902 276.625 9.47017 275.877 10.0402L275.264 9.71017C274.862 10.3402 273.865 9.42517 273.099 9.71017L273.099 9.83017C272.371 9.99517 271.968 9.69517 271.297 9.83017C269.688 10.0402 268.749 9.71017 268.806 10.1902C268.232 9.81517 270.359 9.98017 269.458 9.44017C264.123 9.94241 258.754 10.1829 253.381 10.1602C252.768 9.98017 252.385 9.92017 252.25 9.74017C251.404 9.78818 250.568 9.91405 249.759 10.1152C249.932 10.1152 249.414 9.87517 249.127 9.86017C248.15 9.69517 248.073 10.4002 247.019 10.2052C247.441 10.0702 247.575 9.90517 247.422 9.72517C246.403 10.0248 245.328 10.192 244.241 10.2202C244.413 10.1302 244.662 10.0852 244.624 9.93517C243.455 10.3702 242.478 9.93517 241.462 10.1602L241.826 9.87517C240.178 9.56017 241.347 10.4602 239.91 10.2802C240.255 10.1902 240.14 10.0852 240.198 9.96517C238.665 10.3129 237.079 10.4946 235.484 10.5052C235.495 10.4892 235.502 10.4711 235.502 10.4527C235.502 10.4342 235.495 10.4161 235.484 10.4002C233.96 10.3751 232.437 10.4303 230.923 10.5652C230.348 10.4452 231.096 9.87517 229.563 9.99517C229.563 10.5502 226.957 10.2502 227.876 10.8652C226.457 10.7333 225.023 10.7333 223.603 10.8652C224.197 10.6552 222.952 10.1902 224.044 10.1452L223.22 9.81516C223.335 9.57516 224.063 9.81517 223.795 9.59017C222.928 9.70831 222.05 9.76853 221.17 9.77017C220.092 10.3219 218.877 10.6899 217.606 10.8502C218.372 10.6252 217.165 10.2352 217.606 10.1452L215.421 11.1052C214.865 11.1052 215.306 10.6552 214.501 10.8052C214.501 10.9552 214.214 11.0452 213.965 11.1652C213.716 11.2852 211.704 11.3152 211.455 10.7602C211.225 10.5502 212.355 10.6402 211.742 10.4602C210.726 10.4602 210.688 10.6552 209.672 10.6552L209.672 10.6252C209.021 10.6252 207.756 10.8652 208.446 11.1652C208.906 11.1652 208.274 10.8352 208.944 11.0002C208.129 11.3272 207.214 11.4725 206.3 11.4202C206.645 11.3302 206.607 11.1802 206.741 11.0302C205.354 11.415 203.913 11.6669 202.448 11.7802C202.448 12.0502 203.004 11.3152 203.234 11.4502C201.318 11.0902 199.21 11.9602 197.6 11.4502C197.869 11.4502 197.754 11.8252 197.735 11.7502C196.796 11.7502 196.834 11.3452 196.221 11.4802C196.221 11.2702 195.454 11.4802 194.841 11.6302C194.228 11.7802 194.669 11.5252 195.224 11.4952C193.118 11.8299 190.956 11.8908 188.824 11.6752C188.824 11.8252 187.579 12.2002 187.119 12.1852L187.31 11.8402C186.889 11.6452 185.758 11.8402 185.682 11.5702C184.685 11.9902 189.514 11.2402 188.154 11.5702C187.809 11.2852 186.237 12.1102 186.563 11.5702C185.643 11.5702 184.647 11.9602 183.842 11.5702C184.11 11.5702 184.609 11.1052 183.842 11.1202C182.52 11.1202 183.478 11.2852 182.405 11.3902L181.715 11.5252C181.715 11.8702 180.546 11.5252 181.025 11.8552C180.872 11.5852 179.109 12.0202 179.243 11.4652L179.435 11.0302C178.86 11.0302 178.477 11.4802 178.036 11.6752C178.036 11.6752 177.806 11.5402 177.844 11.4802C177.844 12.1402 176.465 11.4802 175.794 11.9302C174.587 11.6902 172.728 11.9302 172.172 11.4652C171.268 11.7293 170.296 11.8218 169.336 11.7352C169.547 11.7352 169.835 11.7352 169.911 11.5102C169.241 11.3152 169.087 11.5102 168.474 11.5102C168.608 11.4052 167.152 11.1052 166.424 10.8652C165.504 11.0452 165.811 11.4052 165.715 11.6302C164.891 10.9702 163.128 12.0352 162.074 11.4202C162.4 11.3302 163.415 11.1052 162.668 10.9402C161.844 10.2652 160.963 11.4052 159.621 11.0752L159.928 11.6302C159.334 11.2852 158.012 11.9152 158.012 11.3602C157.552 11.5552 156.421 11.1652 156.555 11.7052C154.409 11.4052 151.171 12.0952 149.868 11.1052C149.542 11.1952 148.756 11.1052 148.91 11.3602C149.427 11.6752 149.657 11.1652 149.849 11.3602C149.76 11.3515 149.67 11.3701 149.599 11.4121C149.528 11.4541 149.48 11.5161 149.465 11.5852C148.776 11.4502 148.22 11.4052 148.891 10.9702C147.358 10.6102 147.281 11.8552 145.326 11.6002C145.326 11.3902 145.326 11.3002 144.713 11.3302L143.602 11.6902C142.356 11.5702 142.912 11.1652 142.893 10.7902C142.203 10.7902 141.379 10.7902 140.977 11.0902L140.172 10.6102C140.747 10.9552 139.597 10.8202 139.271 10.9102L139.674 10.8352C139.559 10.6852 138.773 10.7602 138.371 10.8352C138.371 11.0602 139.252 11.1802 139.693 11.2402C139.348 11.4052 138.811 11.3602 138.332 11.5402C138.505 11.1802 137.24 11.2702 136.704 11.2102C136.167 11.1502 136.014 11.5402 135.822 11.5102C135.63 11.4802 134.826 11.5102 135.305 11.2102C135.784 10.9102 135.784 11.4052 136.129 11.2102C135.841 11.1052 135.841 10.7302 134.96 10.9552C134.078 11.1802 135.094 11.6902 133.906 11.4352C134.232 11.3452 134.289 11.2102 134.538 11.0752L133.408 10.8652L133.408 11.1952C133.274 11.1052 133.408 11.0902 133.293 11.0452C132.948 11.3902 131.568 11.0452 131.376 11.5102C130.792 11.4425 130.215 11.3372 129.652 11.1952C129.308 11.1058 128.944 11.0703 128.583 11.0909C128.221 11.1115 127.868 11.1877 127.544 11.3152V11.3152C126.972 11.2683 126.393 11.33 125.858 11.4952C124.957 11.2252 125.59 10.2202 124.574 10.6252C123.635 10.6252 123.098 11.1952 123.463 11.4202C121.795 11.1502 119.879 11.6602 118.346 11.1052C118.097 11.2252 118.346 11.3152 117.752 11.3902C115.3 11.1952 112.559 11.6602 110.624 10.9552C111.352 10.8352 110.624 10.6252 110.624 10.4302C110.03 10.7152 109.934 10.1002 109.704 10.6102C109.474 11.1202 109.704 11.0602 110.356 11.1952C108.855 11.3558 107.327 11.2689 105.872 10.9402C106.274 11.1052 105.872 11.1802 105.623 11.2702C105.757 10.7902 104.684 10.6852 103.86 10.8202L103.726 11.1202L103.266 10.6852C102.94 10.7752 102.883 11.3002 102.097 10.9852C102.071 10.8621 101.989 10.7504 101.867 10.6702C100.941 11.0104 99.9048 11.1203 98.8969 10.9852L98.1687 10.5352C97.7663 10.5352 97.0956 10.8052 97.7855 10.9402C96.2333 10.6402 95.2178 10.5802 94.7387 10.1902C91.5628 10.8915 88.238 11.0803 84.9661 10.7452L84.9661 10.5352C84.1421 10.2952 84.5062 10.8952 83.9313 10.7302C84.2188 10.5202 83.3181 10.2502 83.9313 10.0102C82.7433 9.74016 82.36 10.3402 81.5744 10.4152C81.4403 10.6852 82.2259 10.2502 82.0535 10.6102C81.9002 10.7002 80.3864 10.3252 80.1373 10.7452C79.8498 10.5652 80.1373 10.2502 80.2714 10.0852L79.5241 10.2652C78.6618 9.72516 81.6319 9.44016 80.7313 8.76516L80.0414 8.76516C79.4283 8.28516 81.9576 8.33016 80.1756 8.10516C79.4283 8.28516 78.7576 8.90016 79.4091 9.11016C77.857 9.11016 78.6235 10.1302 76.9755 10.0402C76.5348 9.75516 78.2977 10.0402 78.0103 9.65016C77.2438 9.27516 76.439 9.78516 75.7492 9.65016C76.5156 9.84516 75.7491 10.2652 75.3276 10.3252C74.5036 10.0852 75.9024 9.93516 74.7144 9.84516C74.5036 10.0852 73.3922 10.2352 74.3312 10.4452C73.8713 11.0002 73.1048 10.2502 72.415 10.6552C72.0701 10.2502 73.6988 9.78516 72.415 9.53016C72.5874 9.92016 70.767 9.99516 71.4185 10.5952C70.9203 10.4602 70.882 10.1602 71.2652 9.93516C70.5562 9.66516 69.4449 10.5802 69.349 9.80016L69.0808 10.1902C68.8508 10.0552 68.5251 9.93516 68.161 9.71016C67.7969 9.48516 66.0532 10.1602 66.2448 9.57516C66.034 9.57516 64.5777 9.57516 65.1142 9.96516C66.0148 10.2652 66.1873 9.71016 66.6472 10.2952C66.034 9.81516 65.325 10.2952 64.731 10.4302L64.731 10.1902C64.4244 10.1902 63.6962 10.1902 63.4855 10.4302C63.7346 10.3102 63.6196 10.1452 63.3705 10.0702L63.0256 10.4452C61.7417 10.5652 62.7765 9.81516 61.5309 9.86016L62.4507 9.60516C62.2399 9.60516 61.8375 9.30516 61.2243 9.38016C60.9752 9.69516 60.5154 10.0552 60.3046 10.2952C59.5956 10.4152 60.0171 9.92016 59.289 10.2202L60.2279 9.87516C60.3812 9.78516 59.6531 9.32016 58.7141 9.29016C58.1009 9.38016 57.1428 9.80016 58.0818 10.0102C57.6027 10.0102 56.9704 9.77016 57.3536 9.56016C56.2805 9.56016 57.4686 9.90516 56.5297 10.0702C56.1656 9.84516 55.0159 9.48516 54.3452 9.14016L55.3608 8.67516L54.7093 8.67516C55.5716 8.28516 54.326 8.33016 54.8242 7.89516C54.3492 7.84722 53.8665 7.89899 53.4254 8.04516C54.6518 8.82516 51.9308 8.97516 52.2374 9.65016C50.4745 9.75516 51.2793 7.98516 49.3631 8.94516C49.6505 9.12516 48.769 9.59016 49.8804 9.45516C48.7882 9.33516 49.0948 10.0852 47.8301 9.75516C48.7882 9.53016 46.8528 9.03516 48.2517 8.70516C48.1559 8.93016 49.0181 8.90016 49.2289 8.85516C48.7882 8.58516 49.3631 8.19516 48.2517 8.15016C47.581 8.15016 46.6421 8.15016 46.757 8.49516C46.872 8.84016 47.7918 8.49516 47.3319 8.87016C45.9714 8.87016 45.7798 8.36016 45.1666 9.00516C46.0289 9.00516 46.2205 9.39516 46.1822 9.65016L45.1666 9.75516L45.3774 9.51516C43.8061 9.26016 44.8791 9.95016 43.3462 9.80016L42.6564 9.27516C43.0588 8.85516 44.8791 9.57516 44.6684 8.85516C43.6719 8.85516 43.3079 9.12516 42.3689 8.85516C42.5989 8.85516 42.8863 8.85516 43.0971 8.75016C42.733 8.75016 42.4456 7.76016 40.9701 8.22516C40.2228 8.40516 40.7593 8.46516 40.721 8.73516C39.1114 8.73516 38.6132 8.97516 37.5593 8.96016C37.8275 8.46516 35.7389 8.82516 36.9269 8.36016C37.4664 8.54926 38.0508 8.64701 38.6419 8.64701C39.233 8.64701 39.8174 8.54926 40.3569 8.36016C39.8204 7.71516 41.6216 8.49516 42.024 7.91016C40.721 7.83516 40.836 7.23516 40.6635 6.84516C40.3394 6.8321 40.0163 6.88372 39.7246 6.99516C39.5521 7.35516 40.012 7.37016 40.012 7.74516C38.7818 7.57371 37.515 7.67236 36.3521 8.03016C35.8922 7.82016 36.0646 7.46016 36.6395 7.46016C34.907 7.46258 33.1769 7.35725 31.4657 7.14516C32.4813 7.80516 29.6454 7.14516 30.316 7.73016C31.1783 7.91016 31.9065 8.37516 31.3891 8.61516C30.8526 8.61516 31.3891 8.36016 31.2166 8.21016C30.4885 8.51016 30.1819 7.64016 29.4537 8.12016C31.0442 8.00016 29.8178 7.40016 30.1436 6.95016C28.9938 7.16016 30.1436 6.62016 29.1088 6.56016C27.8484 6.77761 26.566 6.90811 25.2764 6.95016C23.5234 6.60969 21.7116 6.49319 19.9111 6.60516C19.2021 6.33516 19.7386 5.82516 18.953 5.69016C18.1673 5.55516 19.6045 6.30516 18.244 5.99016L18.3781 5.88516C17.9565 5.99016 15.887 5.39016 15.408 6.12516L15.887 5.57016C15.6379 5.57016 15.3697 5.57016 15.1589 5.67516C15.1589 5.48016 14.8714 5.30016 15.3122 5.19516C14.4882 4.76016 13.5109 5.19516 12.5912 5.12016L13.2043 5.51016C11.8082 5.52665 10.4124 5.4665 9.02703 5.33016L9.02703 5.00016L8.10725 5.10516C8.35636 4.83516 7.55155 4.58016 7.03418 4.82016L9.48692 4.14516C10.1193 4.37016 8.72044 4.50516 9.10368 4.85016C9.40822 4.99916 9.76013 5.07816 10.1193 5.07816C10.4784 5.07816 10.8303 4.99916 11.1349 4.85016C10.7928 4.79299 10.4363 4.82459 10.1193 4.94016C9.98513 4.47516 10.8091 4.53516 11.2881 4.25016C11.0007 4.25016 10.5983 4.08516 10.5217 4.25016C11.1787 4.06886 11.88 4.0073 12.572 4.07016C11.9205 4.22016 12.8786 4.38516 12.572 4.50516C12.7445 4.10016 13.6451 4.02516 14.7948 4.20516C15.5613 4.71516 17.0367 4.02516 18.3014 4.22016C17.6952 4.62828 16.961 4.90268 16.1745 5.01516C16.9984 5.27016 17.1134 5.01516 17.9374 5.31516C18.4128 4.84609 19.0974 4.53526 19.8536 4.44516L19.8536 4.76016C20.8692 4.65516 20.8692 4.20516 22.1338 4.37016C24.28 4.64016 26.5028 4.76016 28.1507 4.88016L28.1507 5.18016C29.1088 4.58016 31.2166 5.09016 32.4813 4.86516C34.5508 5.25516 37.061 4.86516 38.0958 5.37516C41.7061 5.27096 45.321 5.33106 48.9223 5.55516L48.2325 5.96016C48.9415 5.66016 48.6732 6.23016 49.3439 6.20016C48.5966 5.81016 50.3212 5.78016 50.8194 5.54016C52.6206 5.83209 54.484 5.791 56.2614 5.42016L56.2614 5.73516C57.8327 5.22516 59.6339 5.81016 61.5309 5.99016C61.6704 6.11526 61.8407 6.21697 62.0318 6.28915C62.2228 6.36133 62.4305 6.4025 62.6423 6.41016C63.6351 6.05874 64.6986 5.84554 65.7849 5.78016C67.1409 5.85302 68.4868 6.01357 69.8089 6.26016C74.0246 5.72016 78.2594 6.26016 82.6092 6.06516L82.9157 6.42516C87.1697 5.82516 92.3051 6.68016 95.9076 6.42516L95.5243 7.02516C96.6549 7.25016 98.1112 7.02516 97.8429 6.50016C98.9543 6.72516 100.679 6.29016 101.369 6.81516C102.518 6.96516 102.787 6.57516 103.745 6.53016C105.509 6.77453 107.304 6.85009 109.091 6.75516L108.631 6.60516C108.382 6.72516 108.363 6.99516 108.899 7.04016C109.436 7.08516 111.87 7.29516 111.103 6.54516C113.403 7.02516 116.545 6.32016 118.768 6.95016C118.576 6.74016 119.151 6.72516 119.4 6.59016C121.302 6.81794 123.229 6.88332 125.149 6.78516C125.475 6.89016 124.612 7.11516 125.455 7.16016C125.934 7.08516 125.455 6.89016 126.069 6.80016C129.403 6.51516 132.756 7.34016 135.765 7.28016C141.13 6.99516 146.687 7.28016 151.822 7.28016L151.822 7.43016C153.566 6.89016 155.846 8.04516 157.226 7.22016C157.628 7.37016 158.778 7.22016 158.472 7.58016C159.832 7.20516 162.304 8.00016 164.22 7.58016C164.058 7.53785 163.884 7.53785 163.722 7.58016C165.638 7.92516 167.554 7.58016 169.471 7.82016C169.26 7.82016 168.877 7.92516 168.8 8.07516C169.624 8.36016 170.716 7.47516 171.176 8.18016C171.636 8.18016 171.521 7.83516 171.176 7.85016C176.004 8.03149 180.843 7.97638 185.662 7.68516C189.112 8.12016 185.873 8.87016 188.594 8.36016C188.805 8.49516 188.748 8.09016 188.786 8.24016C189.84 8.04516 190.415 9.03516 191.143 8.66016C190.855 8.22516 191.641 8.42016 191.66 8.16516C193.749 8.45016 194.17 8.85516 195.837 8.51016L195.723 8.75016C197.639 8.09016 199.919 8.43516 201.471 7.68516C212.202 7.55017 222.549 7.07017 232.916 6.87517C243.283 6.68017 253.343 6.42517 263.843 6.60517C265.555 7.10173 267.42 7.18018 269.19 6.83017C269.094 6.93517 268.921 6.95017 269.094 7.04017C269.228 6.54517 271.01 6.95017 271.24 6.48517C275.072 6.48517 278.694 6.29017 282.737 6.17017C282.105 6.24517 281.798 6.65017 282.546 6.59017L283.331 6.26017L283.465 6.39517C283.964 6.30517 284.519 6.05017 283.983 5.90017C293.966 5.21017 303.873 5.90017 313.684 5.43517C316.431 5.48006 319.178 5.36977 321.904 5.10517C329.203 5.59765 336.545 5.52732 343.826 4.89517C343.352 5.39047 342.747 5.79974 342.053 6.0949C341.358 6.39006 340.59 6.56413 339.802 6.60517V6.60517Z" fill="#1A1A1A"/>
<path d="M6.09594 3.7251C6.34505 3.9801 7.18818 4.1601 6.46002 4.4451C6.40253 4.2201 5.98097 3.9351 6.09594 3.7251Z" fill="#1A1A1A"/>
<path d="M29.1671 7.52014C29.1671 7.52014 29.4928 7.64014 29.5503 7.68514C29.2629 7.68514 28.9754 7.88014 28.7646 7.68514C29.0521 7.74514 29.0138 7.62514 29.1671 7.52014Z" fill="#1A1A1A"/>
<path d="M35.1071 7.97009C35.0113 8.18009 33.7083 8.30009 32.9609 8.28509L35.1071 7.97009Z" fill="#1A1A1A"/>
<path d="M40.5875 9.14014C41.0666 9.35014 40.9133 9.45514 40.2809 9.41014C40.2426 9.29014 40.4534 9.24514 40.5875 9.14014Z" fill="#1A1A1A"/>
<path d="M41.0282 8.67505C41.363 8.68006 41.6837 8.78153 41.9289 8.96005C41.948 8.78005 40.8558 9.03505 41.0282 8.67505Z" fill="#1A1A1A"/>
<path d="M53.0424 9.86012C53.3489 9.86012 53.9813 9.69512 54.2304 9.95012C53.943 9.77012 52.8124 10.1751 53.0424 9.86012Z" fill="#1A1A1A"/>
<path d="M58.6758 9.77014C58.8674 9.77014 58.944 9.77014 59.1548 9.77014C59.3656 9.77014 59.1548 10.0251 58.8291 10.0401L58.6758 9.77014Z" fill="#1A1A1A"/>
<path d="M160.925 11.6602L160.312 11.7652L160.407 11.5402L160.925 11.6602Z" fill="#1A1A1A"/>
<path d="M205.706 11.8552C206.319 11.7202 206.147 12.0652 206.243 12.0952C205.687 12.1102 206.434 11.8252 205.706 11.8552Z" fill="#1A1A1A"/>
<path d="M229.851 10.6252L229.659 10.6252L229.717 10.1752L229.851 10.6252Z" fill="#1A1A1A"/>
</g>
</g>
<defs>
<clipPath id="clip0_905_19322">
<rect width="15" height="343" fill="white" transform="translate(343.5 0.170166) rotate(90)"/>
</clipPath>
<clipPath id="clip1_905_19322">
<rect width="340.068" height="8.565" fill="white" transform="translate(3.75781 3.6051)"/>
</clipPath>
</defs>
</svg>
