<svg width="344" height="15" viewBox="0 0 344 15" fill="none" xmlns="http://www.w3.org/2000/svg">
<g clip-path="url(#clip0_905_19354)">
<g clip-path="url(#clip1_905_19354)">
<path d="M336.352 7.0574C337.579 6.9224 335.663 6.6974 337.157 6.8624C337.08 6.96924 336.954 7.04896 336.804 7.08523C336.655 7.12149 336.493 7.11153 336.352 7.0574V7.0574Z" fill="#1A1A1A"/>
<path d="M4.35138 5.94743C8.39456 4.94243 13.5683 6.26243 17.9755 5.67743C18.4929 5.67743 17.8031 6.30743 18.972 6.18743C23.2451 5.45243 29.856 6.18743 34.9723 6.99743L34.6657 7.17743C35.6238 7.32743 36.8502 6.77243 37.8849 6.89243C37.8849 7.01243 37.5591 7.04243 37.8849 7.20743C38.1532 6.86243 39.8011 7.10243 40.2226 6.86243C40.625 7.01243 40.5676 7.28243 41.085 7.46243L41.6981 7.07243C43.4035 6.15743 45.7222 7.23743 48.0024 6.80243C47.8875 6.89243 47.6575 6.96743 47.83 7.05743C51.8909 6.73129 55.9742 6.60604 60.0553 6.68243C59.8829 6.81743 59.7296 7.07243 59.9595 7.23743C60.1703 6.81743 61.435 6.74243 62.5272 6.68243C62.9871 7.14743 64.4434 6.33743 65.6506 6.68243L65.6506 6.77243C66.6087 6.33743 67.0303 7.07243 67.816 6.53243L68.3908 6.89243C68.8315 6.27743 69.7513 7.23743 70.537 6.89243L70.537 6.66743C71.2651 6.53243 71.6483 6.84743 72.319 6.75743L72.319 6.83243C73.9286 6.69743 74.8292 7.07243 74.8101 6.59243C75.3658 6.98243 73.2771 6.72743 74.1202 7.29743C79.4225 7.0474 84.7382 7.02236 90.0439 7.22243C90.6379 7.41742 91.0211 7.47743 91.1553 7.67243C91.9912 7.64712 92.8207 7.54646 93.6272 7.37243C93.4356 7.37243 93.9529 7.62743 94.2404 7.65743C95.1793 7.85242 95.2943 7.14743 96.3482 7.37243C95.9266 7.50743 95.7733 7.65742 95.9075 7.83742C96.9337 7.5733 98.0081 7.44158 99.0884 7.44742C98.9159 7.53742 98.6476 7.56742 98.686 7.71742C99.874 7.32743 100.813 7.85242 101.829 7.59742L101.445 7.86742C103.074 8.24242 101.943 7.29742 103.361 7.52242C103.017 7.52242 103.132 7.71742 103.074 7.82242C104.642 7.52257 106.251 7.37645 107.865 7.38742C107.851 7.40567 107.844 7.42636 107.844 7.44742C107.844 7.46849 107.851 7.48918 107.865 7.50742C109.37 7.58866 110.881 7.58866 112.387 7.50742C112.942 7.64242 112.176 8.18242 113.69 8.10742C113.69 7.55242 116.277 7.91242 115.395 7.26742C116.786 7.45734 118.202 7.51275 119.611 7.43242C119.036 7.64242 120.243 8.12242 119.151 8.15242L119.956 8.51242C119.841 8.73742 119.132 8.42242 119.381 8.70742C120.245 8.61645 121.116 8.57634 121.987 8.58742C123.071 8.0584 124.285 7.71583 125.551 7.58242C124.785 7.79242 125.973 8.21242 125.551 8.30242L127.831 7.25242C128.368 7.25242 127.946 7.70242 128.732 7.55242C128.732 7.40242 129.039 7.32742 129.269 7.20742C129.498 7.08742 131.51 7.08742 131.74 7.64242C131.97 7.85242 130.859 7.74742 131.453 7.94242C132.449 7.94242 132.507 7.76242 133.503 7.76242C134.155 7.85242 135.42 7.53742 134.73 7.23742C134.27 7.23742 134.902 7.56742 134.231 7.40242C135.042 7.08172 135.952 6.94654 136.857 7.01242C136.512 7.10242 136.55 7.23742 136.416 7.40242C137.792 7.02914 139.22 6.78738 140.67 6.68242C140.67 6.42743 140.114 7.16242 139.884 7.01242C141.8 7.38742 143.851 6.53242 145.441 7.08742C145.192 7.08742 145.307 6.71242 145.326 6.78742C146.246 6.78742 146.208 7.20742 146.802 7.07242C146.802 7.29742 147.568 7.07242 148.181 6.93742C148.507 6.78742 148.354 7.05742 147.798 7.07242C149.879 6.73853 152.016 6.6777 154.122 6.89242C154.122 6.75742 155.348 6.36742 155.808 6.38242L155.635 6.72742C156.038 6.93742 157.168 6.72742 157.245 6.99742C158.222 6.59242 153.413 7.32742 154.792 6.99742C155.137 7.29742 156.709 6.47242 156.344 6.99742C157.283 6.99742 158.261 6.60742 159.046 6.92242C158.797 6.92242 158.299 7.40242 159.046 7.37242C160.349 7.37242 159.41 7.22242 160.483 7.10242L160.867 6.99742C160.867 6.66742 162.036 6.99742 161.537 6.68242C161.71 6.95242 163.454 6.51742 163.319 7.07242L163.128 7.50742C163.683 7.50742 164.048 7.04242 164.507 6.86242C164.507 6.86242 164.718 6.98242 164.699 7.05742C164.699 6.39742 166.04 7.05742 166.73 6.60742C167.918 6.84742 169.739 6.60742 170.294 7.05742C171.182 6.78227 172.142 6.67934 173.092 6.75742C172.881 6.75742 172.594 6.84742 172.536 6.98242C173.188 7.17742 173.341 6.98242 173.954 6.89242C173.82 6.99742 175.257 7.28242 175.985 7.52242C176.886 7.32742 176.58 6.96742 176.675 6.74242C177.499 7.40242 179.224 6.32242 180.278 6.92242C179.952 7.01242 178.936 7.25242 179.703 7.41742C180.527 8.07742 181.37 6.92242 182.711 7.25242L182.386 6.69742C182.98 7.04242 184.302 6.38242 184.302 6.93742C184.762 6.74242 185.892 7.11742 185.739 6.59242C187.943 7.04242 191.085 6.32242 192.427 7.26742C192.733 7.17742 193.538 7.26742 193.365 6.99742C192.848 6.69742 192.637 7.20742 192.446 6.99742C192.531 7.00207 192.616 6.98159 192.683 6.93999C192.751 6.89839 192.796 6.83865 192.81 6.77242C193.5 6.89242 194.036 6.92242 193.385 7.37242C194.918 7.68742 194.956 6.45742 196.891 6.66742C196.891 6.87742 196.891 6.96742 197.524 6.92242L198.578 6.54742C199.746 6.66742 199.191 7.04242 199.191 7.41742C199.861 7.41742 200.685 7.41742 200.992 7.08742L201.797 7.55242C201.203 7.22242 202.352 7.32742 202.659 7.23742L202.352 7.32742C202.467 7.49242 203.234 7.32742 203.636 7.32742C203.636 7.08742 202.755 6.99742 202.314 6.93742C202.659 6.77242 203.196 6.80242 203.636 6.60742C203.502 6.98242 204.729 6.86242 205.265 6.90742C205.802 6.95242 205.955 6.57742 206.127 6.59242C206.3 6.60742 207.124 6.59242 206.645 6.87742C206.166 7.16242 206.166 6.69742 205.821 6.87742C206.223 7.02742 206.185 7.35742 207.009 7.11742C207.833 6.87742 206.856 6.38242 208.044 6.62242C207.737 6.71242 207.679 6.84742 207.43 6.98242L208.542 7.17742L208.542 6.83242C208.695 6.92242 208.542 6.95242 208.657 6.99742C208.982 6.63742 210.362 6.87742 210.573 6.48742C211.156 6.53467 211.733 6.61997 212.297 6.74242L212.183 6.74242C212.54 6.84959 212.922 6.89823 213.304 6.88533C213.686 6.87243 214.061 6.79827 214.405 6.66742V6.66742C214.976 6.69707 215.547 6.61995 216.072 6.44242C216.973 6.68242 216.379 7.70242 217.375 7.26742C218.295 7.26742 218.813 6.65242 218.449 6.44242C220.096 6.65242 221.955 6.09742 223.507 6.59242C223.737 6.45742 223.507 6.38242 224.082 6.29242C226.497 6.41242 229.198 5.85742 231.134 6.50242C230.425 6.65242 231.134 6.83242 231.134 7.02742C231.709 6.72742 231.824 7.34242 232.034 6.81742C232.245 6.29242 232.034 6.36742 231.345 6.24742C232.812 6.02102 234.322 6.02102 235.79 6.24742C235.388 6.11242 235.79 6.02242 236.001 5.93242C236.001 6.41242 236.978 6.47242 237.783 6.29242L237.898 5.99242L238.415 6.29242C238.741 6.18742 238.76 5.67742 239.565 5.94742C239.596 6.06506 239.677 6.17094 239.795 6.24742C240.687 5.87493 241.705 5.72819 242.708 5.82742L243.455 6.24742C243.857 6.24742 244.49 5.93242 243.819 5.81242C245.371 6.05242 246.368 6.06742 246.866 6.44242C249.944 5.6171 253.2 5.27557 256.447 5.43742L256.447 5.66242C257.29 5.85742 256.868 5.27242 257.462 5.40742C257.194 5.61742 258.114 5.85742 257.462 6.12742C258.65 6.33742 258.976 5.72242 259.762 5.60242C259.858 5.31742 259.129 5.79742 259.283 5.43742C259.417 5.33242 260.931 5.63242 261.199 5.19742C261.506 5.36242 261.199 5.69242 261.199 5.85742L261.927 5.64742C262.828 6.14242 260.011 6.57742 260.854 7.14742L261.525 7.14742C262.176 7.59742 259.781 7.68742 261.525 7.82242C262.234 7.59742 262.847 6.95242 262.195 6.77242C263.709 6.62242 262.866 5.72242 264.514 5.72242C264.955 5.97742 263.192 5.81242 263.518 6.17242C264.303 6.50242 265.07 5.94742 265.76 6.05242C264.993 5.90242 265.625 5.45242 266.104 5.36242C266.948 5.55742 265.587 5.78242 266.756 5.81242C266.948 5.55742 268.021 5.34742 267.082 5.19742C267.484 4.61242 268.308 5.33242 268.998 4.88242C269.381 5.27242 267.81 5.82742 269.113 6.00742C268.883 5.61742 270.684 5.45242 269.994 4.89742C270.493 5.00242 270.569 5.30242 270.205 5.54242C270.933 5.76742 271.93 4.80742 272.121 5.54242L272.006 5.16742C272.236 5.28742 272.562 5.37742 272.945 5.58742C273.329 5.79742 274.976 5.01742 274.861 5.58742C275.072 5.58742 276.529 5.58742 275.954 5.10742C275.034 4.88242 274.919 5.43742 274.402 4.88242C275.053 5.33242 275.705 4.88242 276.222 4.64242L276.318 4.86742C276.624 4.77742 277.333 4.86742 277.525 4.55242C277.295 4.68742 277.429 4.85242 277.678 4.89742L277.985 4.53742C279.326 4.43242 278.387 5.16742 279.671 5.16742L278.732 5.45242C278.943 5.45242 279.384 5.70742 279.959 5.58742C280.189 5.25742 280.591 4.86742 280.783 4.61242C281.472 4.46242 281.108 4.97242 281.779 4.61242L280.898 5.01742C280.763 5.12242 281.511 5.54242 282.45 5.51242C283.044 5.39242 283.944 4.91242 283.005 4.74742C283.465 4.74742 284.117 4.91242 283.753 5.15242C284.807 5.03242 283.619 4.82242 284.519 4.59742C284.902 4.80742 286.071 5.09242 286.78 5.37742L285.841 5.93242L286.474 5.93242C285.669 6.38242 286.895 6.24742 286.474 6.71242C286.944 6.72451 287.411 6.64731 287.834 6.48742C286.55 5.78242 289.214 5.46742 288.831 4.80742C290.536 4.59742 289.961 6.39742 291.724 5.33242C291.417 5.16742 292.261 4.64242 291.168 4.85242C292.261 4.85242 291.877 4.17742 293.085 4.41742C292.146 4.71742 294.119 5.07742 292.778 5.49742C292.778 5.27242 292.011 5.34742 291.801 5.40742C292.261 5.66242 291.801 6.08242 292.835 6.05242C293.506 6.05242 294.426 5.94742 294.273 5.60242C294.119 5.25742 293.257 5.60242 293.679 5.27242C295.001 5.12242 295.25 5.69242 295.767 5.00242C294.924 5.00242 294.713 4.68742 294.713 4.43242L295.691 4.25242L295.499 4.50742C297.089 4.65742 295.959 4.04242 297.415 4.07242L298.143 4.55242C297.798 4.98742 295.921 4.41742 296.227 5.10742C297.224 5.10742 297.53 4.74742 298.488 4.91242C298.277 4.91242 297.99 4.98742 297.779 5.06242C298.143 5.06242 298.527 5.99242 299.925 5.42242C300.654 5.18242 300.117 5.16742 300.117 4.89742C301.707 4.79242 302.167 4.50742 303.202 4.44742C303.01 4.95742 305.003 4.44742 303.892 5.00242C303.336 4.85606 302.746 4.80707 302.163 4.85891C301.58 4.91075 301.019 5.06216 300.519 5.30242C301.113 5.88742 299.274 5.30242 298.948 5.85742C300.232 5.85742 300.174 6.44242 300.404 6.81742C300.722 6.80702 301.032 6.73485 301.305 6.60742C301.439 6.23242 300.979 6.24742 300.941 5.87242C302.199 5.95858 303.463 5.76077 304.582 5.30242C305.061 5.46742 304.927 5.84242 304.371 5.88742C306.073 5.77584 307.785 5.77584 309.487 5.88742C308.414 5.31742 311.269 5.70742 310.541 5.22742C309.679 5.10742 308.912 4.70242 309.391 4.41742C309.928 4.41742 309.391 4.68742 309.602 4.80742C310.273 4.46242 310.694 5.30242 311.346 4.80742C309.813 5.03242 311.078 5.54242 310.809 6.02242C311.921 5.72242 310.809 6.35242 311.882 6.32242C313.086 6.01649 314.325 5.80053 315.581 5.67742C317.349 5.85805 319.144 5.80226 320.889 5.51242C321.636 5.73742 321.157 6.27742 321.962 6.35242C322.766 6.42742 321.253 5.79742 322.632 5.99242L322.498 6.11242C322.901 5.97742 325.028 6.39742 325.392 5.63242L324.989 6.21742C325.258 6.21742 325.488 6.11242 325.698 6.05242C325.698 6.23242 326.024 6.39742 325.698 6.53242C326.561 6.90742 327.48 6.42742 328.4 6.38242L327.576 5.94742C328.95 5.82628 330.332 5.77118 331.715 5.78242L331.715 6.12742L332.597 5.90242C332.405 6.23242 333.248 6.41242 333.708 6.12742L331.409 7.01242C330.738 6.83242 332.098 6.59242 331.677 6.27742C331.369 6.16204 331.025 6.1177 330.685 6.14957C330.346 6.18145 330.025 6.28822 329.761 6.45742C330.105 6.47499 330.447 6.40672 330.738 6.26242C330.93 6.72742 330.125 6.72742 329.722 7.04242C330.01 7.04242 330.412 7.14742 330.47 7.04242C329.841 7.29016 329.141 7.40398 328.438 7.37242C329.052 7.17742 328.094 7.10242 328.323 6.96742C328.323 7.37242 327.385 7.52242 326.235 7.43242C325.411 6.99742 324.108 7.80742 322.786 7.70242C323.315 7.26523 323.973 6.93571 324.702 6.74242C323.878 6.56242 323.782 6.74242 322.939 6.59242C322.54 7.0841 321.928 7.44635 321.214 7.61242L321.214 7.31242C320.237 7.49242 320.256 7.94242 319.011 7.88242C316.865 7.88242 314.661 7.88242 313.013 7.88242L313.013 7.58242C312.055 8.16742 309.909 7.82242 308.702 8.16742C306.594 7.92742 304.179 8.57242 303.087 8.06242C299.544 8.44612 295.972 8.64655 292.395 8.66242L293.085 8.16742C292.414 8.49742 292.644 7.91242 291.973 7.98742C292.74 8.33242 291.053 8.46742 290.593 8.75242C288.785 8.56711 286.946 8.72136 285.228 9.20242L285.228 8.88742C283.733 9.48742 281.894 9.02242 279.997 8.97742C279.849 8.86072 279.673 8.76866 279.479 8.70678C279.284 8.64491 279.076 8.61451 278.866 8.61742C277.916 9.02307 276.887 9.3019 275.82 9.44242C274.478 9.45895 273.137 9.37861 271.815 9.20242C267.695 9.95242 263.441 9.57742 259.149 10.0574L258.842 9.71242C254.55 10.5524 249.395 9.92242 245.85 10.3574L246.176 9.66742C245.065 9.48742 243.627 9.84742 243.934 10.2824C242.803 10.1024 241.136 10.6124 240.427 10.1174C239.278 10.0124 239.029 10.4174 238.07 10.5074C236.314 10.3349 234.538 10.3349 232.782 10.5074L233.299 10.5074C233.548 10.3724 233.567 10.1024 233.031 10.0724C232.494 10.0424 230.061 9.93742 230.865 10.6574C228.566 10.2524 225.5 11.0474 223.201 10.4924C223.392 10.6874 222.837 10.7324 222.588 10.8674C220.677 10.7111 218.75 10.7111 216.839 10.8674C216.532 10.7624 217.356 10.5224 216.532 10.5074C216.053 10.5074 216.532 10.7624 215.919 10.8824C212.642 11.2874 209.289 10.5524 206.338 10.6424C201.107 11.1674 195.492 10.9574 190.414 11.0474L190.414 10.8974C188.728 11.4674 186.429 10.3274 185.068 11.1674C184.666 11.0324 183.535 11.0924 183.842 10.8224C182.481 11.2124 180.01 10.4474 178.093 10.9424C178.259 10.9509 178.424 10.9251 178.572 10.8674C176.656 10.5374 174.855 10.9874 172.824 10.6874C173.035 10.6874 173.418 10.5824 173.494 10.4324C172.69 10.1474 171.578 11.0474 171.138 10.3424C170.678 10.3424 170.812 10.6874 171.138 10.6724C166.382 10.5583 161.623 10.6534 156.881 10.9574C153.489 10.5074 156.689 9.75742 154.007 10.2674C153.777 10.1324 153.834 10.5374 153.796 10.4024C152.761 10.5824 152.186 9.60742 151.458 9.96742C151.765 10.4024 150.979 10.2074 150.96 10.4774C148.871 10.1774 148.469 9.78742 146.821 10.1024L146.936 9.87742C145.02 10.5074 142.778 10.1324 141.187 10.8674C130.552 10.8674 120.358 11.2124 109.992 11.1524C99.759 10.8674 89.7181 11.0324 79.3323 10.4174C77.6707 9.84463 75.8236 9.68747 74.0436 9.96742C74.1586 9.87742 74.331 9.84742 74.1586 9.75742C74.0053 10.2524 72.2424 9.75742 71.9933 10.2224C68.1609 10.0424 64.5967 10.1174 60.6493 10.0274C61.2817 10.0274 61.6075 9.59242 60.8601 9.60742L60.0745 9.89242L59.9595 9.75742C59.4421 9.75742 58.8673 10.0424 59.4038 10.2224C49.4396 10.3874 39.7053 9.15742 29.971 8.97742C27.2772 8.77557 24.5684 8.72544 21.8655 8.82743C14.7218 7.77177 7.46266 7.26934 0.193198 7.32743C0.721243 6.87933 1.36523 6.52449 2.08224 6.28653C2.79924 6.04857 3.57282 5.93297 4.35138 5.94743V5.94743Z" fill="#1A1A1A"/>
<path d="M334.877 7.1474C334.59 6.9074 333.727 6.8024 334.398 6.4574C334.494 6.6674 334.954 6.9224 334.877 7.1474Z" fill="#1A1A1A"/>
<path d="M311.672 5.16743C311.672 5.24243 311.346 5.07743 311.27 5.03243C311.557 5.03243 311.806 4.79243 312.036 4.92743C311.749 5.01743 311.806 5.16743 311.672 5.16743Z" fill="#1A1A1A"/>
<path d="M305.769 5.16742C305.769 4.94242 307.111 4.73242 307.839 4.68742L305.769 5.16742Z" fill="#1A1A1A"/>
<path d="M300.232 4.4624C299.753 4.2974 299.887 4.1924 300.52 4.1774C300.577 4.2974 300.366 4.3574 300.232 4.4624Z" fill="#1A1A1A"/>
<path d="M299.868 4.97242C299.536 4.9892 299.209 4.90902 298.948 4.74742C298.967 4.92742 300.002 4.59742 299.868 4.97242Z" fill="#1A1A1A"/>
<path d="M287.911 4.58243C287.624 4.58243 287.011 4.80743 286.742 4.58243C287.049 4.73243 288.122 4.26743 287.911 4.58243Z" fill="#1A1A1A"/>
<path d="M282.373 5.03241C282.201 5.03241 282.124 5.03241 281.913 5.03241C281.702 5.03241 281.913 4.76241 282.201 4.74741L282.373 5.03241Z" fill="#1A1A1A"/>
<path d="M181.408 6.84741L182.002 6.74241L181.906 6.96741L181.408 6.84741Z" fill="#1A1A1A"/>
<path d="M137.125 6.66741C136.531 6.80241 136.723 6.45741 136.627 6.42741C137.163 6.39741 136.416 6.66741 137.125 6.66741Z" fill="#1A1A1A"/>
<path d="M113.249 7.47743L113.44 7.47743L113.364 7.92743L113.249 7.47743Z" fill="#1A1A1A"/>
</g>
</g>
<defs>
<clipPath id="clip0_905_19354">
<rect width="15" height="343" fill="white" transform="translate(0.5 15) rotate(-90)"/>
</clipPath>
<clipPath id="clip1_905_19354">
<rect width="336.983" height="7.12499" fill="white" transform="translate(337.157 11.1674) rotate(180)"/>
</clipPath>
</defs>
</svg>
