<svg width="16" height="775" viewBox="0 0 16 775" fill="none" xmlns="http://www.w3.org/2000/svg">
<g clip-path="url(#clip0_905_19338)">
<g clip-path="url(#clip1_905_19338)">
<path d="M5.97545 1.85606C5.82545 -0.97662 5.67545 3.39209 5.76545 0.000854492C5.8934 0.27489 5.978 0.580728 6.01411 0.899697C6.05022 1.21867 6.03706 1.54408 5.97545 1.85606V1.85606Z" fill="#1A1A1A"/>
<path d="M4.17528 762.65C3.24528 753.494 4.67028 741.525 4.17528 731.511C4.17528 730.334 4.79028 731.83 4.70028 729.177C4.04028 719.462 4.86528 704.221 5.79528 692.452L5.96028 693.19C6.12528 690.936 5.60028 688.183 5.73528 685.789C5.85528 685.789 5.88528 686.567 6.05028 686.008C5.72028 685.41 6.05028 681.719 5.73528 680.682C5.90028 679.744 6.17028 679.864 6.35028 678.687L5.97528 677.311C5.09028 673.481 6.21528 668.115 5.81028 662.928C5.90028 663.167 5.96028 663.686 6.05028 663.287C5.61528 654.968 5.91528 644.595 5.85528 635.359C5.99028 635.738 6.24528 636.077 6.42528 635.539C6.00528 635.08 5.94528 632.207 5.90028 629.714C6.36528 628.617 5.57028 625.445 5.90028 622.532L6.00528 622.772C5.57028 620.617 6.30528 619.58 5.78028 617.824L6.15528 616.468C5.55528 615.51 6.51528 613.356 6.15528 611.561H6.02028C5.90028 609.885 6.21528 609.007 6.14028 607.451V607.312C6.03528 603.661 6.41028 601.546 5.93028 601.606C6.33528 600.35 6.05028 605.157 6.63528 603.162C6.32028 591.193 6.63528 578.765 6.74028 566.697C6.80049 565.82 6.95716 564.959 7.20528 564.143C7.11528 562.926 7.20528 559.595 6.93528 558.498C6.93528 558.897 7.19028 557.72 7.22028 557.081C7.43028 554.887 6.72528 554.668 6.96528 552.254C7.08528 553.211 7.23528 553.55 7.41528 553.231C7.19838 550.809 7.11815 548.368 7.17528 545.93C7.17528 546.309 7.28028 546.908 7.44528 546.808C7.04028 544.155 7.58028 541.96 7.34028 539.627L7.61028 540.504C8.00028 536.754 7.04028 539.387 7.28028 536.136C7.35528 536.914 7.47528 536.654 7.58028 536.794C7.29325 533.149 7.16303 529.486 7.19028 525.822C7.19028 526.002 7.31028 525.962 7.31028 525.962C7.31028 522.67 7.46028 519.219 7.31028 515.609C7.44528 514.292 7.98528 516.047 7.91028 512.556C7.35528 512.676 7.73028 506.572 7.08528 508.686C7.29111 505.469 7.35622 502.239 7.28028 499.011C7.49028 500.348 7.98528 497.575 8.00028 500.049L8.36028 498.174C8.58528 498.473 8.27028 500.168 8.55528 499.51C8.55528 498.273 8.36028 494.663 8.46528 493.526C7.90763 490.871 7.5805 488.14 7.49028 485.387C7.68528 487.142 8.10528 484.409 8.19528 485.586L7.17528 480.4C7.17528 479.163 7.62528 480.14 7.49028 478.405C7.34028 478.504 7.25028 477.726 7.14528 477.188C7.04028 476.649 7.04028 472.041 7.58028 471.503C7.80528 470.964 7.68528 473.497 7.89528 472.161C7.89528 469.867 7.71528 469.767 7.71528 467.473C7.80528 465.957 7.50528 463.024 7.20528 464.66C7.20528 465.717 7.53528 464.261 7.35528 465.817C7.04188 463.851 6.91589 461.841 6.98028 459.833C7.07028 460.611 7.22028 460.511 7.37028 460.83C7.00886 457.591 6.77852 454.328 6.68028 451.055C6.42528 451.055 7.14528 452.352 7.01028 452.851C7.40028 448.462 6.56028 443.774 7.11528 440.104C7.11528 440.722 6.74028 440.443 6.81528 440.403C6.81528 438.268 7.23528 438.408 7.10028 436.992C7.32528 436.852 7.10028 435.256 6.98028 433.84C6.83028 433.102 7.08528 433.461 7.11528 434.698C6.78442 429.889 6.73427 425.054 6.96528 420.235C6.62947 418.994 6.45695 417.684 6.45528 416.365L6.78528 416.784C6.99528 415.826 6.78528 413.253 7.07028 413.093C6.66528 410.839 7.38528 421.731 7.07028 418.699C7.35528 417.921 6.53028 414.47 7.07028 415.108C6.90553 413.059 6.90553 410.993 7.07028 408.944C7.07028 409.523 7.53528 410.66 7.52028 408.944C7.45459 407.799 7.3394 406.66 7.17528 405.533L7.04028 404.017C6.71028 403.917 7.04028 401.324 6.71028 402.441C6.99528 402.082 6.56028 398.072 7.11528 398.451L7.55028 398.87C7.4398 397.787 7.22295 396.727 6.90528 395.718C6.90528 395.559 7.04028 395.2 7.11528 395.279C6.44028 395.06 7.11528 392.168 6.66528 390.631C6.90528 387.919 6.66528 383.709 7.11528 382.433C6.8423 380.326 6.74671 378.184 6.83028 376.049C6.83028 376.528 6.83028 377.166 7.05528 377.306C7.17745 376.231 7.14692 375.135 6.96528 374.074C7.24568 372.537 7.45606 370.978 7.59528 369.406C7.40028 367.411 7.04028 368.03 6.81528 367.83C7.47528 365.836 6.39528 361.966 6.99528 359.572C7.08528 360.29 7.32528 362.604 7.49028 360.888C8.15028 358.893 7.01028 357.058 7.32528 353.986L6.77028 354.744C7.11528 353.368 6.47028 350.216 7.02528 350.535C6.83028 349.518 7.20528 346.924 6.66528 347.264C7.13028 342.237 6.41028 335.015 7.35528 331.923C7.26528 331.205 7.35528 329.41 7.07028 329.769C6.78528 330.966 7.29528 331.444 7.07028 331.883C7.07028 331.245 6.90528 331.105 6.83028 331.045C6.95028 329.47 6.99528 328.233 7.43028 329.709C7.76028 326.238 6.53028 326.138 6.72528 321.73C6.95028 321.929 7.02528 321.61 6.99528 320.313L6.60528 317.84C6.69528 314.987 7.10028 316.224 7.47528 316.144C7.53179 314.735 7.43069 313.324 7.17528 311.955L7.64028 310.08C7.31028 311.436 7.41528 308.823 7.32528 308.085L7.41528 308.803C7.52301 307.824 7.52301 306.829 7.41528 305.851C7.16099 306.818 7.03413 307.837 7.04028 308.863C6.87528 308.085 6.90528 306.868 6.71028 305.831C7.07028 306.17 6.96528 303.337 6.99528 302.12C7.02528 300.903 6.66528 300.544 6.68028 300.125C6.87528 300.125 6.68028 297.851 6.98028 298.948C6.98028 299.407 6.80028 300.026 6.98028 300.824C7.11528 299.886 7.44528 300.006 7.20528 298.091C7.02528 296.654 6.48528 298.47 6.71028 295.737C6.7957 296.219 6.92148 296.688 7.08528 297.133L7.26528 294.58L6.93528 294.48C7.01028 294.121 7.04028 294.36 7.08528 294.201C6.74028 293.443 6.96528 290.211 6.57528 289.732C6.57528 288.436 6.80028 287.019 6.83028 285.743V285.982C6.98117 284.413 6.93045 282.821 6.68028 281.274H6.75528C6.77367 280.003 6.69324 278.733 6.51528 277.484C6.75528 275.489 7.76028 276.766 7.34028 274.472C7.34028 272.377 6.71028 271.18 6.50028 272.038C6.71028 268.248 6.14028 263.959 6.63528 260.428C6.50028 259.889 6.42528 260.228 6.33528 259.111C6.44028 253.546 5.88528 247.382 6.51528 242.933C6.66528 244.549 6.86028 243.053 7.04028 242.933C6.74028 241.597 7.35528 241.337 6.83028 240.938C6.53028 241.078 6.38028 240.938 6.27528 242.514C6.04445 239.117 6.04445 235.698 6.27528 232.301C6.14028 233.238 6.03528 232.52 5.94528 231.802C6.42528 232.021 6.48528 229.588 6.30528 227.812L6.00528 227.553L6.29028 226.356C6.20028 225.638 5.67528 225.578 5.94528 223.723C6.02166 223.667 6.08806 223.59 6.13986 223.497C6.19167 223.404 6.22764 223.298 6.24528 223.184C5.85258 220.997 5.701 218.746 5.79528 216.501L6.21528 214.786C6.21528 213.908 5.90028 212.412 5.78028 213.988C5.80789 211.646 6.01394 209.313 6.39528 207.026C5.5599 199.72 5.21854 192.33 5.37528 184.943L5.60028 185.142C5.78028 183.148 5.19528 184.165 5.34528 182.828C5.55528 183.447 5.78028 181.372 6.05028 182.828C6.08475 181.039 5.90242 179.254 5.51028 177.542C5.22528 177.283 5.72028 178.958 5.34528 178.619C5.24028 178.32 5.52528 174.849 5.09028 174.43C5.25528 173.752 5.58528 174.271 5.76528 174.63L5.54028 172.974C6.02028 170.979 6.48528 177.602 7.04028 175.448L6.95028 173.911C7.40028 172.435 7.50528 177.901 7.62528 174.111C7.40028 172.435 6.75528 171.019 6.57528 172.515C6.41028 169.044 5.51028 170.919 5.51028 167.169C5.75028 166.152 5.60028 170.181 5.96028 169.443C6.03049 167.739 5.9853 166.03 5.82528 164.336C5.67528 166.092 5.22528 164.615 5.13528 163.498C5.31528 161.504 5.55528 164.715 5.58528 162.022C5.31528 161.583 5.10528 159.11 4.95528 161.264C4.37028 160.287 5.09028 158.451 4.62528 156.975C5.01528 156.098 5.58528 159.748 5.75028 156.776C5.37528 157.255 5.19528 153.125 4.62528 154.781C4.73028 153.624 5.03028 153.484 5.28528 154.342C5.49528 152.666 4.53528 150.352 5.28528 149.754L4.88028 149.195C5.00028 148.677 5.09028 147.939 5.30028 147.081C5.30028 145.605 4.70028 142.373 5.30028 142.493C5.30028 142.034 5.22528 138.683 4.82028 139.979C4.59528 141.974 5.15028 142.373 4.61028 143.53C4.83655 142.129 4.74252 140.67 4.34028 139.341L4.58028 139.141C4.56047 138.195 4.44956 137.257 4.25028 136.349C4.38528 136.887 4.53528 136.608 4.59528 136.029L4.22028 135.291C4.01028 132.399 4.83528 134.593 4.70028 131.76L5.00028 133.915C5.09959 132.99 5.13973 132.056 5.12028 131.122C4.79028 130.603 4.40028 129.626 4.14528 129.127C3.98028 127.531 4.49028 128.389 4.14528 126.833L4.55028 128.828C4.67028 129.127 5.07528 127.432 5.03028 125.297C4.91028 123.941 4.41528 121.846 4.26528 124C4.26528 122.923 4.41528 121.427 4.67028 122.265C4.52028 119.851 4.32528 122.584 4.10028 120.509C4.29528 119.652 4.56528 116.999 4.86528 115.383L5.49528 117.697V116.26C5.96028 118.116 5.82528 115.303 6.29028 116.26C6.30282 115.206 6.21717 114.154 6.03528 113.129C5.36028 116.041 5.00028 109.917 4.35528 110.775C4.13028 106.785 5.93028 108.261 4.85028 104.152C4.68528 104.83 4.14528 102.895 4.37028 105.389C4.37028 102.915 3.68028 103.733 3.92028 100.82C4.22028 102.955 4.56528 98.4864 5.00028 101.578C4.77528 101.379 4.85028 103.334 4.92528 103.793C5.16528 102.775 5.60028 103.992 5.55528 101.479C5.55528 99.9426 5.43528 97.8281 5.09028 98.1472C4.74528 98.4664 5.09028 100.481 4.77528 99.5237C4.59528 96.4516 5.16528 95.933 4.47528 94.6762C4.55028 96.6711 4.17528 97.1099 3.90528 97.07L3.71028 94.8358L3.96528 95.2547C4.08528 91.644 3.48528 94.1974 3.50028 90.7065L3.98028 89.0507C4.41528 89.8686 3.86028 94.1376 4.55028 93.4992C4.40315 91.7839 4.32804 90.059 4.32528 88.3326C4.32528 88.8114 4.41528 89.4697 4.49028 89.9285C5.02729 88.4081 5.14413 86.6847 4.82028 85.0611C4.58028 83.3854 4.56528 84.6222 4.29528 84.5823C4.17528 80.9317 3.87528 79.7947 3.80028 77.5006C4.32528 77.9594 3.80028 73.3513 4.34028 75.9247C4.05704 78.5488 4.17438 81.2219 4.68528 83.7844C5.27028 82.4478 4.68528 86.6569 5.27028 87.4349C5.27028 84.5025 5.84028 84.6222 6.21528 84.1434C6.19468 83.4368 6.11928 82.7349 5.99028 82.0488C5.61528 81.7297 5.64528 82.7869 5.25528 82.8667C5.34088 80.1046 5.14408 77.3397 4.67028 74.648C4.83528 73.5707 5.21028 73.8899 5.25528 75.1866C5.09028 71.1969 5.07528 67.2072 5.12028 63.4569C4.56528 65.8507 4.92528 59.3475 4.44528 60.9833C4.34028 62.9781 3.95028 64.6737 3.66528 63.5965C3.66528 62.3597 3.92028 63.5965 4.04028 63.0978C3.69528 61.5418 4.52028 60.6441 4.04028 59.1081C4.29528 62.6589 4.79028 59.7864 5.27028 60.4247C4.95528 57.8713 5.60028 60.5245 5.55528 57.991C5.25528 55.4376 5.00028 52.3057 4.86528 49.473C5.01432 45.4079 4.93409 41.3337 4.62528 37.2845C4.83528 35.6088 5.37528 36.706 5.43528 34.9106C5.43528 32.7762 4.89528 36.4866 5.07528 33.3547L5.19528 33.6539C5.04528 32.6964 5.45028 27.8888 4.67028 26.9712L5.25528 27.9287C5.25712 27.3825 5.20159 26.8386 5.09028 26.3129C5.27028 26.3129 5.43528 25.5947 5.57028 26.5522C5.71299 24.4952 5.64741 22.422 5.37528 20.3882L5.06028 21.7447C4.73028 18.1539 5.06028 15.7601 4.83528 12.2492H5.16528L4.94028 10.2543C5.27028 10.7531 5.43528 8.83801 5.15028 7.74084L6.06528 13.107C5.90028 14.6231 5.63028 11.4912 5.31528 12.4487C5.07767 13.9557 5.15022 15.5202 5.52528 16.977C5.54818 16.2233 5.48238 15.4694 5.33028 14.7428C5.78028 14.3039 5.79528 16.179 6.12528 17.0967C6.12528 16.4583 6.21528 15.5407 6.12528 15.4011C6.33665 16.8998 6.41718 18.426 6.36528 19.9493C6.17028 18.513 6.09528 20.7273 5.96028 20.1887C6.36528 20.3483 6.53028 22.3631 6.47028 24.9963C6.03528 26.8714 6.86028 29.8836 6.78528 32.9756C6.28129 31.5084 5.9475 29.948 5.79528 28.3476C5.61528 30.3424 5.79528 30.4621 5.67528 32.3373C6.24524 33.5444 6.59932 34.9093 6.71028 36.327L6.41028 36.4666C6.76284 38.1316 6.96921 39.8453 7.02528 41.5734C7.02528 46.4807 7.02528 51.5476 7.02528 55.278L6.72528 55.4177C7.41528 57.4125 7.08528 62.3597 7.41528 65.1525C7.19028 69.9401 7.86528 75.5257 7.41528 77.9794C7.77528 86.3976 8.15028 93.7586 8.13528 102.496L7.67028 101.04C8.01528 102.596 7.43028 102.057 7.52028 103.593C7.85028 101.818 8.01528 105.708 8.28528 106.785C8.12356 110.9 8.29454 115.026 8.79528 119.093L8.49528 119.233C9.11028 122.704 8.66028 126.873 8.63028 131.202C8.37191 132.021 8.25406 132.907 8.28528 133.795C8.71722 136.093 9.00323 138.435 9.14028 140.797C9.14028 143.331 9.14028 147.42 8.93028 149.993C9.72528 159.449 9.38028 169.144 9.90528 178.998L9.54528 179.716C10.4153 189.272 9.81528 201.021 10.2653 209.18L9.65028 208.402C9.48528 210.956 9.86028 214.227 10.2803 213.569C10.1153 216.142 10.6253 219.972 10.1453 221.548C10.1593 223.356 10.2949 225.159 10.5503 226.934C10.3775 230.981 10.3775 235.037 10.5503 239.083V237.846C10.4153 237.308 10.1603 237.268 10.1303 238.485C10.3103 240.34 9.99528 245.287 10.7303 243.432C10.3253 248.718 11.1203 255.76 10.5803 260.907C10.7753 260.468 10.8203 261.764 10.9553 262.303C10.7892 266.702 10.7892 271.11 10.9553 275.509C10.8503 276.247 10.6103 274.332 10.5953 276.227C10.5953 277.344 10.8503 276.227 10.9703 277.623C11.3903 285.124 10.6553 292.824 10.7603 299.567C11.1653 311.715 11.0003 324.383 11.0903 336.013L10.9403 335.873C11.5103 339.763 10.3553 345.009 11.2103 348.121C11.0603 349.039 11.2103 351.632 10.8503 350.954C11.2403 354.046 10.4753 359.632 10.9703 364.12C11.0054 363.742 11.0054 363.361 10.9703 362.983C10.6403 367.511 11.0753 371.521 10.7903 376.289C10.7903 375.81 10.6703 374.932 10.5353 374.792C10.2503 376.628 11.1503 379.161 10.4303 380.178C10.4303 381.236 10.7903 380.917 10.7753 380.178C10.4903 390.631 10.8803 401.803 11.0003 412.694C10.5503 420.494 9.81528 413.173 10.3253 419.337C10.1753 419.836 10.5953 419.696 10.4453 419.776C10.6253 422.17 9.63528 423.487 10.0103 425.142C10.4453 424.464 10.2503 426.239 10.5053 426.299C10.2053 431.067 9.81528 432.005 10.1303 435.775L9.90528 435.496C10.5203 439.924 10.1303 445.031 10.8503 448.761C10.8503 473.098 11.0753 496.438 10.8503 520.177C10.4753 543.636 10.5353 566.617 9.80028 590.415C9.20834 594.407 9.03669 598.489 9.29028 602.544C9.18528 602.285 9.17028 601.906 9.08028 602.305C9.56028 602.624 9.08028 606.633 9.51528 607.232C9.29028 616.029 9.33528 624.148 9.17028 633.165C9.17028 631.728 8.75028 631.01 8.75028 632.706L9.03528 634.501L8.90028 634.781C8.90028 635.958 9.17028 637.234 9.35028 636.037C9.35028 658.799 8.00028 681.161 7.64028 703.463C7.32528 708.75 7.37028 716.29 7.34028 722.035C6.30528 739.051 5.42028 754.392 5.48028 771.727C5.55528 772.126 4.32528 769.812 4.17528 762.65Z" fill="#1A1A1A"/>
<path d="M6.09527 5.24727C5.85527 5.86567 5.76527 7.86052 5.40527 6.28459C5.67527 6.08511 5.87027 5.04779 6.09527 5.24727Z" fill="#1A1A1A"/>
<path d="M4.51953 58.2504C4.59453 58.2504 4.42953 59.0084 4.39953 59.1879C4.39953 58.5296 4.14453 57.9312 4.26453 57.3926C4.29453 58.0509 4.41453 57.9511 4.51953 58.2504Z" fill="#1A1A1A"/>
<path d="M4.59531 71.8153C4.28112 70.2415 4.13966 68.6155 4.17531 66.9878L4.59531 71.8153Z" fill="#1A1A1A"/>
<path d="M3.89047 84.4228C3.72547 85.5199 3.62047 85.2207 3.60547 83.7445C3.71047 83.6448 3.78547 84.1235 3.89047 84.4228Z" fill="#1A1A1A"/>
<path d="M4.40043 85.3005C4.42722 85.9772 4.35592 86.6544 4.19043 87.2953C4.37043 87.3352 4.02543 84.9614 4.40043 85.3005Z" fill="#1A1A1A"/>
<path d="M4.17525 112.67C4.31021 113.565 4.31021 114.487 4.17525 115.383C4.31025 114.685 3.83025 112.191 4.17525 112.67Z" fill="#1A1A1A"/>
<path d="M4.65512 125.397C4.61817 125.748 4.61817 126.103 4.65512 126.454C4.56512 127.212 4.40012 126.454 4.37012 125.776L4.65512 125.397Z" fill="#1A1A1A"/>
<path d="M6.96535 356.919L6.86035 355.562L7.07035 355.762L6.96535 356.919Z" fill="#1A1A1A"/>
<path d="M6.62046 458.396C6.75546 459.773 6.41046 459.354 6.38046 459.593C6.36546 458.337 6.65046 460.052 6.62046 458.396Z" fill="#1A1A1A"/>
<path d="M7.28027 513.135V512.716L7.71527 512.856L7.28027 513.135Z" fill="#1A1A1A"/>
</g>
</g>
<defs>
<clipPath id="clip0_905_19338">
<rect width="15" height="774" fill="white" transform="translate(0.5 0.340088)"/>
</clipPath>
<clipPath id="clip1_905_19338">
<rect width="7.785" height="772.125" fill="white" transform="translate(3.5 0.000854492)"/>
</clipPath>
</defs>
</svg>
